<svg width="16" height="16" viewBox="0 0 16 16" fill="none" xmlns="http://www.w3.org/2000/svg">
<path d="M13.0028 2.66602H10.16C9.2454 2.66472 8.40882 3.18107 8 3.99922V3.99922C7.59118 3.18107 6.7546 2.66472 5.84 2.66602L2.9996 2.66628V2.66628C2.73449 2.66628 2.48024 2.7716 2.29277 2.95906C2.10531 3.14652 2 3.40077 2 3.66588V11.6666V11.6666C2 11.9317 2.10531 12.1859 2.29277 12.3734C2.48024 12.5608 2.73449 12.6662 2.9996 12.6662H5.84C6.7546 12.6648 7.59118 13.1812 8 13.9994V13.9994C8.40882 13.1812 9.2454 12.6648 10.16 12.6662H13C13.5523 12.6662 14 12.2184 14 11.6662V3.66588C14 3.40077 13.8947 3.14652 13.7072 2.95906C13.5198 2.7716 13.2655 2.66628 13.0004 2.66628V2.66628" stroke="#4B5563" stroke-width="1.3" stroke-linecap="round" stroke-linejoin="round"/>
<path d="M8.00033 4V14" stroke="#4B5563" stroke-width="1.3" stroke-linecap="round" stroke-linejoin="round"/>
</svg>
