<svg width="16" height="16" viewBox="0 0 16 16" fill="none" xmlns="http://www.w3.org/2000/svg">
<path d="M2 10.666C5.55556 7.99935 10.4444 7.99935 14 10.666" stroke="#4B5563" stroke-width="1.3" stroke-linecap="round" stroke-linejoin="round"/>
<path fill-rule="evenodd" clip-rule="evenodd" d="M10.6667 2H5.33333C3.49238 2 2 3.49238 2 5.33333V10.6667C2 12.5076 3.49238 14 5.33333 14H10.6667C12.5076 14 14 12.5076 14 10.6667V5.33333C14 3.49238 12.5076 2 10.6667 2Z" stroke="#4B5563" stroke-width="1.3" stroke-linecap="round" stroke-linejoin="round"/>
<path d="M5.21462 5.21589L5.21491 5.21559C5.27991 5.15076 5.38515 5.15086 5.45002 5.21581C5.5149 5.28077 5.51486 5.38601 5.44995 5.45093C5.38503 5.51584 5.27979 5.51587 5.21484 5.451C5.14988 5.38612 5.14978 5.28088 5.21462 5.21589" stroke="#4B5563" stroke-width="2" stroke-linecap="round" stroke-linejoin="round"/>
</svg>
