<svg width="20" height="20" viewBox="0 0 20 20" fill="none" xmlns="http://www.w3.org/2000/svg">
<path d="M10 10.0026H16.6667" stroke="#4B5563" stroke-width="1.5" stroke-linecap="round" stroke-linejoin="round"/>
<path d="M10 15.8307H16.6667" stroke="#4B5563" stroke-width="1.5" stroke-linecap="round" stroke-linejoin="round"/>
<path d="M10 4.16667H16.6667" stroke="#4B5563" stroke-width="1.5" stroke-linecap="round" stroke-linejoin="round"/>
<path d="M5.41732 10.0031C5.41703 10.2331 5.23046 10.4194 5.00048 10.4193C4.77049 10.4192 4.58408 10.2328 4.58398 10.0028C4.58389 9.7728 4.77014 9.58623 5.00013 9.58594C5.11081 9.5858 5.21701 9.62971 5.29528 9.70798C5.37355 9.78625 5.41746 9.89244 5.41732 10.0031" stroke="#4B5563" stroke-width="1.5" stroke-linecap="round" stroke-linejoin="round"/>
<path d="M5.41732 4.16719C5.41703 4.39717 5.23046 4.58343 5.00048 4.58333C4.77049 4.58324 4.58408 4.39682 4.58398 4.16684C4.58389 3.93686 4.77014 3.75029 5.00013 3.75C5.11081 3.74986 5.21701 3.79377 5.29528 3.87204C5.37355 3.95031 5.41746 4.0565 5.41732 4.16719" stroke="#4B5563" stroke-width="1.5" stroke-linecap="round" stroke-linejoin="round"/>
<path d="M5.41732 15.8313C5.41703 16.0612 5.23046 16.2475 5.00048 16.2474C4.77049 16.2473 4.58408 16.0609 4.58398 15.8309C4.58389 15.6009 4.77014 15.4144 5.00013 15.4141C5.11081 15.4139 5.21701 15.4578 5.29528 15.5361C5.37355 15.6144 5.41746 15.7206 5.41732 15.8313" stroke="#4B5563" stroke-width="1.5" stroke-linecap="round" stroke-linejoin="round"/>
</svg>
