<svg width="20" height="20" viewBox="0 0 20 20" fill="none" xmlns="http://www.w3.org/2000/svg">
<path d="M10.0003 10.8346C10.4606 10.8346 10.8337 10.4615 10.8337 10.0013C10.8337 9.54106 10.4606 9.16797 10.0003 9.16797C9.54009 9.16797 9.16699 9.54106 9.16699 10.0013C9.16699 10.4615 9.54009 10.8346 10.0003 10.8346Z" stroke="#4B5563" stroke-width="1.66667" stroke-linecap="round" stroke-linejoin="round"/>
<path d="M15.8333 10.8346C16.2936 10.8346 16.6667 10.4615 16.6667 10.0013C16.6667 9.54106 16.2936 9.16797 15.8333 9.16797C15.3731 9.16797 15 9.54106 15 10.0013C15 10.4615 15.3731 10.8346 15.8333 10.8346Z" stroke="#4B5563" stroke-width="1.66667" stroke-linecap="round" stroke-linejoin="round"/>
<path d="M4.16732 10.8346C4.62756 10.8346 5.00065 10.4615 5.00065 10.0013C5.00065 9.54106 4.62756 9.16797 4.16732 9.16797C3.70708 9.16797 3.33398 9.54106 3.33398 10.0013C3.33398 10.4615 3.70708 10.8346 4.16732 10.8346Z" stroke="#4B5563" stroke-width="1.66667" stroke-linecap="round" stroke-linejoin="round"/>
</svg>
