<svg width="16" height="16" viewBox="0 0 16 16" fill="none" xmlns="http://www.w3.org/2000/svg">
<path d="M10.9074 1.73051L9.79341 3.76384C9.09694 5.03511 7.96378 6.01126 6.60342 6.51184L4.05075 7.45184L3.55941 11.4958L7.33275 7.72184L8.27541 8.66451L4.50208 12.4378L8.54408 11.9465L9.48942 9.35718C9.97898 8.01579 10.9309 6.89298 12.1741 6.19051L14.2087 5.04118L14.8647 6.20184L12.8301 7.35184C11.8632 7.89815 11.1229 8.77133 10.7421 9.81451L9.51675 13.1718L1.89941 14.0985L2.82541 6.48051L6.14275 5.26051C7.2009 4.87121 8.08232 4.11198 8.62408 3.12318L9.73808 1.08984L10.9074 1.73051Z" fill="#030712"/>
</svg>
